<svg xmlns="http://www.w3.org/2000/svg" width="1600" height="980" viewBox="0 0 1600 980" fill="none">
  <defs>
    <marker id="arrow" viewBox="0 0 10 10" refX="9" refY="5" markerWidth="8" markerHeight="8" orient="auto-start-reverse">
      <path d="M 0 0 L 10 5 L 0 10 z" fill="#1F3A5F"/>
    </marker>
    <style>
      text { font-family: Inter, Arial, sans-serif; fill: #333333; }
      .title { font-size: 24px; font-weight: 700; fill: #1F3A5F; }
      .label { font-size: 18px; font-weight: 600; }
      .body { font-size: 16px; }
      .small { font-size: 14px; }
      .box { stroke: #1F3A5F; stroke-width: 2; }
      .arrow { stroke: #1F3A5F; stroke-width: 2; fill: none; marker-end: url(#arrow); }
      .dashed { stroke-dasharray: 8 8; }
      .icon-circle { fill: #2FA4A9; }
      .muted { fill: #F7F7F7; }
    </style>
  </defs>
<text x="800" y="56" text-anchor="middle" class="title">
<tspan x="800" dy="0">Prompt Library by Job to Be Done</tspan>
</text>
<text x="800" y="90" text-anchor="middle" class="body">
<tspan x="800" dy="0">Organize prompts by outcomes so they are easier to find, adapt, and reuse.</tspan>
</text>
<rect x="140" y="180" width="220" height="120" rx="24" fill="#FFFFFF" class="box"/><text x="250" y="245" text-anchor="middle" class="label">
<tspan x="250" dy="0">Writing</tspan>
</text><rect x="450" y="180" width="220" height="120" rx="24" fill="#EAF6F6" class="box"/><text x="560" y="245" text-anchor="middle" class="label">
<tspan x="560" dy="0">Research</tspan>
</text><rect x="760" y="180" width="220" height="120" rx="24" fill="#FFFFFF" class="box"/><text x="870" y="245" text-anchor="middle" class="label">
<tspan x="870" dy="0">Creativity</tspan>
</text><rect x="1070" y="180" width="220" height="120" rx="24" fill="#EAF6F6" class="box"/><text x="1180" y="245" text-anchor="middle" class="label">
<tspan x="1180" dy="0">Automation</tspan>
</text><rect x="140" y="460" width="220" height="120" rx="24" fill="#FFFFFF" class="box"/><text x="250" y="525" text-anchor="middle" class="label">
<tspan x="250" dy="0">Collaboration</tspan>
</text><rect x="450" y="460" width="220" height="120" rx="24" fill="#EAF6F6" class="box"/><text x="560" y="525" text-anchor="middle" class="label">
<tspan x="560" dy="0">Productivity</tspan>
</text><rect x="760" y="460" width="220" height="120" rx="24" fill="#FFFFFF" class="box"/><text x="870" y="525" text-anchor="middle" class="label">
<tspan x="870" dy="0">Resilience</tspan>
</text><rect x="1070" y="460" width="220" height="120" rx="24" fill="#EAF6F6" class="box"/><text x="1180" y="525" text-anchor="middle" class="label">
<tspan x="1180" dy="0">Career</tspan>
</text><rect x="110" y="160" width="1380" height="520" rx="30" fill="#F7F7F7" class="box"/><rect x="140" y="180" width="220" height="120" rx="24" fill="#FFFFFF" class="box"/><text x="250" y="245" text-anchor="middle" class="label">
<tspan x="250" dy="0">Writing</tspan>
</text><rect x="450" y="180" width="220" height="120" rx="24" fill="#EAF6F6" class="box"/><text x="560" y="245" text-anchor="middle" class="label">
<tspan x="560" dy="0">Research</tspan>
</text><rect x="760" y="180" width="220" height="120" rx="24" fill="#FFFFFF" class="box"/><text x="870" y="245" text-anchor="middle" class="label">
<tspan x="870" dy="0">Creativity</tspan>
</text><rect x="1070" y="180" width="220" height="120" rx="24" fill="#EAF6F6" class="box"/><text x="1180" y="245" text-anchor="middle" class="label">
<tspan x="1180" dy="0">Automation</tspan>
</text><rect x="140" y="460" width="220" height="120" rx="24" fill="#FFFFFF" class="box"/><text x="250" y="525" text-anchor="middle" class="label">
<tspan x="250" dy="0">Collaboration</tspan>
</text><rect x="450" y="460" width="220" height="120" rx="24" fill="#EAF6F6" class="box"/><text x="560" y="525" text-anchor="middle" class="label">
<tspan x="560" dy="0">Productivity</tspan>
</text><rect x="760" y="460" width="220" height="120" rx="24" fill="#FFFFFF" class="box"/><text x="870" y="525" text-anchor="middle" class="label">
<tspan x="870" dy="0">Resilience</tspan>
</text><rect x="1070" y="460" width="220" height="120" rx="24" fill="#EAF6F6" class="box"/><text x="1180" y="525" text-anchor="middle" class="label">
<tspan x="1180" dy="0">Career</tspan>
</text><rect x="450" y="740" width="700" height="90" rx="22" fill="#F5FBF2" class="box"/><text x="800" y="795" text-anchor="middle" class="body">
<tspan x="800" dy="0">Find the job to be done first, then choose or adapt the prompt.</tspan>
</text></svg>
